<?xml version="1.0" encoding="UTF-8" standalone="no"?>
<!-- Created with Inkscape (http://www.inkscape.org/) -->

<svg
   xmlns:dc="http://purl.org/dc/elements/1.1/"
   xmlns:cc="http://creativecommons.org/ns#"
   xmlns:rdf="http://www.w3.org/1999/02/22-rdf-syntax-ns#"
   xmlns:svg="http://www.w3.org/2000/svg"
   xmlns="http://www.w3.org/2000/svg"
   xmlns:sodipodi="http://sodipodi.sourceforge.net/DTD/sodipodi-0.dtd"
   xmlns:inkscape="http://www.inkscape.org/namespaces/inkscape"
   width="17.204189mm"
   height="3.9787571mm"
   viewBox="0 0 60.959726 14.097958"
   id="svg4267"
   version="1.1"
   inkscape:version="0.91 r13725"
   sodipodi:docname="xstarz-sm.svg">
  <defs
     id="defs4269" />
  <sodipodi:namedview
     id="base"
     pagecolor="#ffffff"
     bordercolor="#666666"
     borderopacity="1.0"
     inkscape:pageopacity="0.0"
     inkscape:pageshadow="2"
     inkscape:zoom="7.9195959"
     inkscape:cx="50.422417"
     inkscape:cy="13.620743"
     inkscape:document-units="px"
     inkscape:current-layer="layer1"
     showgrid="false"
     inkscape:window-width="1600"
     inkscape:window-height="876"
     inkscape:window-x="0"
     inkscape:window-y="24"
     inkscape:window-maximized="1"
     fit-margin-top="0"
     fit-margin-left="0"
     fit-margin-right="0"
     fit-margin-bottom="-0.4" />
  <metadata
     id="metadata4272">
    <rdf:RDF>
      <cc:Work
         rdf:about="">
        <dc:format>image/svg+xml</dc:format>
        <dc:type
           rdf:resource="http://purl.org/dc/dcmitype/StillImage" />
        <dc:title></dc:title>
      </cc:Work>
    </rdf:RDF>
  </metadata>
  <g
     inkscape:label="Layer 1"
     inkscape:groupmode="layer"
     id="layer1"
     transform="translate(-109.52013,-296.7418)">
    <g
       id="g4139"
       transform="matrix(0.09192602,0,0,0.09192602,102.00371,265.23673)"
       inkscape:export-xdpi="90"
       inkscape:export-ydpi="90">
      <g
         id="g4141">
        <polygon
           id="polygon4143"
           points="185.806,343.407 226.872,343.407 183.599,385.238 183.13,384.804 162.821,366.003 " />
        <polygon
           id="polygon4145"
           points="125.701,401.968 145.633,421.066 122.831,442.485 81.766,442.485 125.278,401.557 " />
      </g>
      <path
         id="path4147"
         d="m 703.232,416.89 -9.165,0 -4.318,0 c -7.143,10.15 -18.718,19.196 -24.359,23.283 l -3.305,2.31 82.294,0 0,-25.593 -41.147,0 z"
         inkscape:connector-curvature="0" />
      <g
         id="g4149">
        <path
           id="path4151"
           d="m 293.007,409.703 c 7.474,0.654 13.191,2.873 17.145,6.866 3.81,3.969 5.677,9.742 5.596,17.201 -0.045,4.153 -0.55,7.777 -1.511,10.838 -1.108,3.325 -2.708,5.844 -4.797,7.534 -2.093,1.879 -4.818,3.094 -8.174,3.616 -3.427,0.512 -7.414,0.253 -11.95,-0.764 -17.616,-3.944 -35.098,-8.697 -52.389,-14.259 -0.136,-5.332 -0.272,-10.653 -0.409,-15.963 17.993,4.304 36.139,7.963 54.392,10.975 2.343,0.387 4.018,0.207 5.024,-0.539 1.004,-0.655 1.518,-2.026 1.541,-4.105 0.023,-2.077 -0.46,-3.59 -1.446,-4.529 -1.058,-0.95 -2.726,-1.566 -5,-1.869 -11.053,-1.473 -22.074,-3.138 -33.055,-4.993 -3.956,-0.669 -7.337,-1.739 -10.152,-3.138 -2.956,-1.5 -5.313,-3.171 -7.07,-4.997 -1.9,-1.85 -3.272,-3.939 -4.117,-6.282 -0.917,-2.282 -1.376,-4.719 -1.376,-7.358 0,-2.782 0.494,-5.335 1.49,-7.719 0.924,-2.242 2.489,-4.195 4.7,-5.896 2.139,-1.627 4.85,-2.927 8.134,-3.887 3.354,-0.957 7.351,-1.462 11.986,-1.448 17.72,0.058 35.442,0.106 53.165,0.145 -0.042,7.146 -0.084,14.294 -0.127,21.443 -18.258,-1.043 -36.485,-2.304 -54.665,-3.769 -2.203,-0.163 -3.837,0.07 -4.906,0.687 -1.069,0.542 -1.607,1.696 -1.618,3.481 -0.01,1.708 0.514,2.966 1.573,3.79 1.058,0.821 2.684,1.365 4.882,1.613 11.021,1.239 22.067,2.347 33.134,3.326 z"
           inkscape:connector-curvature="0" />
        <path
           id="path4153"
           d="m 410.384,379.248 c -0.01,7.809 -0.02,15.618 -0.03,23.427 -11.414,-0.049 -22.826,-0.188 -34.234,-0.416 -0.126,21.845 -0.251,43.69 -0.377,65.534 -3.027,-0.224 -6.052,-0.471 -9.076,-0.74 -3.06,-0.273 -6.119,-0.57 -9.175,-0.89 0.167,-21.447 0.334,-42.895 0.502,-64.342 -11.401,-0.323 -22.795,-0.737 -34.178,-1.239 0.075,-7.142 0.15,-14.284 0.225,-21.427 14.407,0.029 28.815,0.051 43.224,0.066 14.372,0.015 28.745,0.024 43.119,0.027 z"
           inkscape:connector-curvature="0" />
        <path
           id="path4155"
           d="m 519.851,400.392 c -0.075,-6.987 -0.15,-13.975 -0.224,-20.962 17.189,-0.046 34.376,-0.103 51.561,-0.173 3.422,-0.014 7.027,0.343 10.809,1.019 3.568,0.678 6.962,1.876 10.173,3.527 2.926,1.66 5.422,3.859 7.487,6.574 1.922,2.799 2.879,6.323 2.882,10.697 10e-4,2.297 -0.351,4.599 -1.053,6.941 -0.773,2.424 -1.791,4.553 -3.055,6.388 -1.405,2.079 -3.089,3.914 -5.054,5.494 -1.895,1.566 -4.074,2.875 -6.535,3.901 5.852,6.099 11.657,11.593 17.393,16.398 -7.231,2.35 -14.496,4.558 -21.791,6.624 -4.739,-4.629 -9.511,-9.663 -14.306,-15.056 -9.581,1.815 -19.195,3.453 -28.837,4.912 0.076,6.867 0.151,13.734 0.227,20.602 -6.328,1.296 -12.672,2.488 -19.029,3.577 -0.149,-13.927 -0.298,-27.854 -0.447,-41.782 17.737,-1.504 35.422,-3.408 53.028,-5.712 2.125,-0.278 4.352,-1.148 6.679,-2.569 2.399,-1.352 3.59,-3.464 3.571,-6.367 -0.017,-2.591 -0.951,-4.46 -2.805,-5.661 -1.857,-1.197 -4.382,-1.702 -7.58,-1.476 -17.661,1.252 -35.363,2.287 -53.094,3.104 z"
           inkscape:connector-curvature="0" />
      </g>
      <g
         id="g4157">
        <path
           id="path4159"
           d="m 438.067,468.529 c 10.631,-0.48 21.251,-1.155 31.855,-2.025 -5.342,-4.064 -10.681,-8.242 -16.015,-12.514 -5.269,4.844 -10.549,9.697 -15.84,14.539 z"
           inkscape:connector-curvature="0" />
        <path
           id="path4161"
           d="m 452.067,378.147 c -19.44,29.866 -39.105,60.964 -59.033,91.251 9.775,0.064 19.552,-0.037 29.324,-0.301 5.238,-0.142 10.475,-0.331 15.709,-0.568 1.991,-7.537 3.977,-15.059 5.956,-22.56 -5.326,-4.378 -10.646,-8.834 -15.957,-13.348 6.542,-0.133 13.083,-0.312 19.621,-0.534 1.973,-7.473 3.939,-14.922 5.901,-22.342 2.068,7.329 4.14,14.623 6.218,21.877 6.534,-0.278 13.065,-0.6 19.59,-0.968 -5.235,4.752 -10.479,9.55 -15.734,14.372 2.083,7.204 4.169,14.364 6.26,21.477 5.134,-0.421 10.263,-0.888 15.388,-1.4 9.809,-0.981 19.6,-2.129 29.365,-3.444 -20.927,-25.066 -41.886,-53.646 -62.608,-83.512 z"
           inkscape:connector-curvature="0" />
      </g>
      <g
         id="g4163">
        <path
           id="path4165"
           d="m 704.577,342.828 -26.183,26.183 -49.63,54.685 c 0,0 0,0.011 -0.011,0.011 -17.702,19.509 -32.443,26.21 -35.382,27.411 -39.922,15.815 -102.657,26.016 -173.215,26.016 -38.755,0 -75.137,-3.084 -106.689,-8.481 -58.427,-11.268 -88.592,-30.431 -101.515,-41.016 l -7.699,-7.247 c -0.191,-0.223 -0.286,-0.342 -0.286,-0.342 -0.011,0.011 -0.011,0.034 -0.023,0.046 l -28.578,-26.896 -20.71,-19.166 -30.968,-30.624 -41.922,0 51.849,50.305 20.367,19.509 c 0,0 50.055,48.644 107.121,61.906 l 0.002,0 c 39.83,12.899 96.352,20.956 159.052,20.956 60.952,0 116.05,-7.616 155.661,-19.885 0.04,-0.011 0.077,-0.021 0.118,-0.032 69.155,-18.968 102.814,-59.274 102.814,-59.274 l 66.155,-74.171 -40.328,0.106 z"
           inkscape:connector-curvature="0"
           style="fill:#ed1c24" />
        <path
           id="path4167"
           d="m 670.249,361.619 c 0.119,-0.131 0.242,-0.26 0.367,-0.385 l 18.363,-18.364 -77.095,0.205 -0.172,26.107 51.792,-0.133 c 4.085,-4.5 6.745,-7.43 6.745,-7.43 z"
           inkscape:connector-curvature="0" />
      </g>
    </g>
  </g>
</svg>
